<svg width="21" height="15" fill="none" xmlns="http://www.w3.org/2000/svg"><path d="M12.18 14.313a1.224 1.224 0 0 1-.373-.936 1.33 1.33 0 0 1 .405-.936l3.649-3.65H1.459a1.25 1.25 0 0 1-.921-.371 1.245 1.245 0 0 1-.371-.92c0-.366.124-.673.372-.921s.555-.372.92-.37H15.86L12.18 2.526a1.258 1.258 0 0 1-.388-.92c0-.357.13-.663.388-.92.258-.259.565-.388.92-.388.356 0 .663.13.92.387l5.91 5.91c.129.129.22.269.275.42.054.15.08.312.08.484s-.027.334-.082.484c-.054.151-.145.291-.273.42l-5.942 5.942a1.204 1.204 0 0 1-.887.355 1.26 1.26 0 0 1-.921-.388z" fill="#111"/></svg>