<svg width="7" height="12" viewBox="0 0 7 12" fill="none" xmlns="http://www.w3.org/2000/svg">
<path d="M-0.000195503 5.575C-0.000195503 5.44167 0.0248051 5.31233 0.0748053 5.187C0.124805 5.06167 0.191472 4.95767 0.274805 4.875L4.8748 0.275C5.05814 0.0916663 5.29147 0 5.57481 0C5.85814 0 6.09147 0.0916663 6.27481 0.275C6.45814 0.458333 6.5498 0.691667 6.5498 0.975C6.5498 1.25833 6.45814 1.49167 6.27481 1.675L2.3748 5.575L6.27481 9.475C6.45814 9.65833 6.5498 9.89167 6.5498 10.175C6.5498 10.4583 6.45814 10.6917 6.27481 10.875C6.09147 11.0583 5.85814 11.15 5.57481 11.15C5.29147 11.15 5.05814 11.0583 4.8748 10.875L0.274805 6.275C0.174805 6.175 0.103805 6.06667 0.0618048 5.95C0.019805 5.83333 -0.000862122 5.70833 -0.000195503 5.575Z" fill="#111111"/>
</svg>
