<svg width="21" height="15" fill="none" xmlns="http://www.w3.org/2000/svg"><path d="M8.82.686c.259.259.383.571.373.937a1.33 1.33 0 0 1-.405.936L5.14 6.21h14.402c.366 0 .673.123.921.371s.372.555.371.92c0 .366-.124.673-.372.921a1.245 1.245 0 0 1-.92.37H5.14l3.681 3.682c.259.258.388.565.388.92 0 .356-.13.663-.388.92a1.258 1.258 0 0 1-.92.388c-.356 0-.663-.13-.92-.387l-5.91-5.91a1.14 1.14 0 0 1-.275-.42 1.398 1.398 0 0 1-.08-.484c0-.172.027-.334.082-.484.054-.151.145-.291.274-.42L7.012.654C7.25.417 7.545.3 7.9.3c.354 0 .661.13.92.387z" fill="#111"/></svg>