<svg width="22" height="13" viewBox="0 0 22 13" fill="none" xmlns="http://www.w3.org/2000/svg">
<path d="M21.5646 2.57604L11.8127 12.6705C11.6966 12.7903 11.5708 12.875 11.4354 12.9245C11.2999 12.9748 11.1548 13 11 13C10.8452 13 10.7001 12.9748 10.5646 12.9245C10.4292 12.875 10.3034 12.7903 10.1873 12.6705L0.406332 2.57604C0.135444 2.29647 0 1.947 0 1.52765C0 1.10829 0.145119 0.748848 0.435356 0.449309C0.725594 0.14977 1.0642 3.33923e-07 1.45119 3.33923e-07C1.83817 3.33923e-07 2.17678 0.14977 2.46702 0.449309L11 9.25576L19.533 0.449309C19.8039 0.169739 20.1374 0.0299538 20.5337 0.0299538C20.9308 0.0299538 21.2744 0.179723 21.5646 0.479263C21.8549 0.778802 22 1.12826 22 1.52765C22 1.92704 21.8549 2.2765 21.5646 2.57604Z" fill="#111111"/>
</svg>
