<svg width="32" height="23" fill="none" xmlns="http://www.w3.org/2000/svg"><path d="M12.954 1.17c.392.391.58.865.564 1.42a2.016 2.016 0 0 1-.613 1.42L7.373 9.541H29.21c.555 0 1.02.188 1.396.564.376.376.563.84.562 1.394 0 .555-.188 1.02-.564 1.396-.376.376-.84.564-1.394.562H7.373l5.581 5.582c.392.391.588.857.588 1.396a1.9 1.9 0 0 1-.588 1.394 1.907 1.907 0 0 1-1.396.588 1.9 1.9 0 0 1-1.394-.588l-8.96-8.96a1.728 1.728 0 0 1-.417-.636 2.12 2.12 0 0 1-.121-.734c0-.261.041-.506.123-.734.083-.229.221-.441.415-.637l9.009-9.008c.359-.36.807-.539 1.345-.539.538 0 1.004.196 1.396.588z" fill="#111"/></svg>