<svg width="20" height="20" fill="none" xmlns="http://www.w3.org/2000/svg"><path d="M10 20C4.486 20 0 15.514 0 10S4.486 0 10 0s10 4.486 10 10-4.486 10-10 10zm0-18.462c-4.663 0-8.462 3.799-8.462 8.462 0 4.664 3.799 8.462 8.462 8.462 4.664 0 8.462-3.796 8.462-8.462S14.666 1.538 10 1.538z" fill="#fff"/><path d="M13.254 11.73c-.837 0-1.645-.37-2.276-1.044A4.027 4.027 0 0 1 9.92 8.219c-.07-.995.235-1.911.86-2.578.625-.667 1.498-1.026 2.474-1.026.968 0 1.844.367 2.468 1.032.623.665.935 1.587.865 2.573a4.038 4.038 0 0 1-1.058 2.466c-.632.674-1.44 1.045-2.275 1.045zm-7.685.162c-1.431 0-2.69-1.322-2.805-2.948-.059-.833.2-1.603.73-2.168.53-.564 1.26-.865 2.074-.865.814 0 1.544.31 2.07.872.527.563.794 1.338.734 2.164-.117 1.623-1.375 2.945-2.803 2.945zm12.334 2.881c-.077-.226-.263-.467-.636-.695-1.128-.69-2.515-1.053-4.013-1.053-1.47 0-2.896.38-4.016 1.07-1.262.777-2.11 1.91-2.452 3.277-.08.322-.199.92-.073 1.255a9.24 9.24 0 0 0 11.19-3.854zM5.559 16.989c.34-1.356 1.064-2.487 2.186-3.402a.385.385 0 0 0-.124-.662c-.577-.184-1.236-.282-2.052-.282-1.146 0-2.361.31-3.276.873-.26.16-.515.222-.711.277a9.271 9.271 0 0 0 3.74 4.165l.086-.007c.018-.325.07-.647.151-.962z" fill="#fff"/><path d="M1 10a9 9 0 1 1 18 0 9 9 0 0 1-18 0z" stroke="#fff" stroke-width="2"/></svg>