<svg width="140" height="140" viewBox="0 0 140 140" fill="none" xmlns="http://www.w3.org/2000/svg">
<rect x="1.5" y="1.5" width="137" height="137" rx="68.5" fill="white" stroke="#111111" stroke-width="3"/>
<path d="M47.0659 60.8524C48.6823 60.8524 50.2828 60.5341 51.7761 59.9155C53.2695 59.297 54.6264 58.3903 55.7693 57.2474C56.9123 56.1044 57.8189 54.7475 58.4375 53.2542C59.056 51.7608 59.3744 50.1603 59.3744 48.5439C59.3744 46.9275 59.056 45.327 58.4375 43.8336C57.8189 42.3403 56.9123 40.9834 55.7693 39.8404C54.6264 38.6975 53.2695 37.7908 51.7761 37.1723C50.2828 36.5537 48.6823 36.2354 47.0659 36.2354C43.8014 36.2354 40.6707 37.5321 38.3624 39.8404C36.0541 42.1487 34.7573 45.2795 34.7573 48.5439C34.7573 51.8083 36.0541 54.9391 38.3624 57.2474C40.6707 59.5557 43.8014 60.8524 47.0659 60.8524Z" fill="url(#paint0_linear_287_2342)"/>
<path d="M47.0659 60.8524C48.6823 60.8524 50.2828 60.5341 51.7761 59.9155C53.2695 59.297 54.6264 58.3903 55.7693 57.2474C56.9123 56.1044 57.8189 54.7475 58.4375 53.2542C59.056 51.7608 59.3744 50.1603 59.3744 48.5439C59.3744 46.9275 59.056 45.327 58.4375 43.8336C57.8189 42.3403 56.9123 40.9834 55.7693 39.8404C54.6264 38.6975 53.2695 37.7908 51.7761 37.1723C50.2828 36.5537 48.6823 36.2354 47.0659 36.2354C43.8014 36.2354 40.6707 37.5321 38.3624 39.8404C36.0541 42.1487 34.7573 45.2795 34.7573 48.5439C34.7573 51.8083 36.0541 54.9391 38.3624 57.2474C40.6707 59.5557 43.8014 60.8524 47.0659 60.8524Z" fill="url(#paint1_linear_287_2342)"/>
<path d="M47.0659 60.8524C48.6823 60.8524 50.2828 60.5341 51.7761 59.9155C53.2695 59.297 54.6264 58.3903 55.7693 57.2474C56.9123 56.1044 57.8189 54.7475 58.4375 53.2542C59.056 51.7608 59.3744 50.1603 59.3744 48.5439C59.3744 46.9275 59.056 45.327 58.4375 43.8336C57.8189 42.3403 56.9123 40.9834 55.7693 39.8404C54.6264 38.6975 53.2695 37.7908 51.7761 37.1723C50.2828 36.5537 48.6823 36.2354 47.0659 36.2354C43.8014 36.2354 40.6707 37.5321 38.3624 39.8404C36.0541 42.1487 34.7573 45.2795 34.7573 48.5439C34.7573 51.8083 36.0541 54.9391 38.3624 57.2474C40.6707 59.5557 43.8014 60.8524 47.0659 60.8524Z" fill="url(#paint2_linear_287_2342)"/>
<path d="M47.0659 60.8524C48.6823 60.8524 50.2828 60.5341 51.7761 59.9155C53.2695 59.297 54.6264 58.3903 55.7693 57.2474C56.9123 56.1044 57.8189 54.7475 58.4375 53.2542C59.056 51.7608 59.3744 50.1603 59.3744 48.5439C59.3744 46.9275 59.056 45.327 58.4375 43.8336C57.8189 42.3403 56.9123 40.9834 55.7693 39.8404C54.6264 38.6975 53.2695 37.7908 51.7761 37.1723C50.2828 36.5537 48.6823 36.2354 47.0659 36.2354C43.8014 36.2354 40.6707 37.5321 38.3624 39.8404C36.0541 42.1487 34.7573 45.2795 34.7573 48.5439C34.7573 51.8083 36.0541 54.9391 38.3624 57.2474C40.6707 59.5557 43.8014 60.8524 47.0659 60.8524Z" fill="url(#paint3_radial_287_2342)"/>
<path d="M47.0659 60.8524C48.6823 60.8524 50.2828 60.5341 51.7761 59.9155C53.2695 59.297 54.6264 58.3903 55.7693 57.2474C56.9123 56.1044 57.8189 54.7475 58.4375 53.2542C59.056 51.7608 59.3744 50.1603 59.3744 48.5439C59.3744 46.9275 59.056 45.327 58.4375 43.8336C57.8189 42.3403 56.9123 40.9834 55.7693 39.8404C54.6264 38.6975 53.2695 37.7908 51.7761 37.1723C50.2828 36.5537 48.6823 36.2354 47.0659 36.2354C43.8014 36.2354 40.6707 37.5321 38.3624 39.8404C36.0541 42.1487 34.7573 45.2795 34.7573 48.5439C34.7573 51.8083 36.0541 54.9391 38.3624 57.2474C40.6707 59.5557 43.8014 60.8524 47.0659 60.8524Z" fill="url(#paint4_radial_287_2342)"/>
<path d="M92.5795 60.8524C94.1959 60.8524 95.7965 60.5341 97.2898 59.9155C98.7832 59.297 100.14 58.3903 101.283 57.2474C102.426 56.1044 103.333 54.7475 103.951 53.2542C104.57 51.7608 104.888 50.1603 104.888 48.5439C104.888 46.9275 104.57 45.327 103.951 43.8336C103.333 42.3403 102.426 40.9834 101.283 39.8404C100.14 38.6975 98.7832 37.7908 97.2898 37.1723C95.7965 36.5537 94.1959 36.2354 92.5795 36.2354C89.3151 36.2354 86.1844 37.5321 83.8761 39.8404C81.5678 42.1487 80.271 45.2795 80.271 48.5439C80.271 51.8083 81.5678 54.9391 83.8761 57.2474C86.1844 59.5557 89.3151 60.8524 92.5795 60.8524Z" fill="url(#paint5_linear_287_2342)"/>
<g filter="url(#filter0_f_287_2342)">
<path d="M103.361 48.5438C103.361 51.4037 102.225 54.1464 100.203 56.1686C98.1807 58.1909 95.4379 59.3269 92.5781 59.3269C89.7182 59.3269 86.9755 58.1909 84.9532 56.1686C82.931 54.1464 81.7949 51.4037 81.7949 48.5438C81.7949 45.6836 82.9311 42.9405 84.9536 40.918C86.9761 38.8955 89.7192 37.7593 92.5794 37.7593C95.4397 37.7593 98.1827 38.8955 100.205 40.918C102.228 42.9405 103.361 45.6836 103.361 48.5438Z" stroke="url(#paint6_linear_287_2342)" stroke-width="0.3"/>
</g>
<g filter="url(#filter1_f_287_2342)">
<path d="M57.9185 48.5438C57.9185 51.422 56.7751 54.1822 54.74 56.2174C52.7048 58.2526 49.9446 59.3959 47.0664 59.3959C44.1883 59.3959 41.428 58.2526 39.3928 56.2174C37.3577 54.1822 36.2144 51.422 36.2144 48.5438C36.2144 45.6657 37.3577 42.9054 39.3928 40.8703C41.428 38.8351 44.1883 37.6918 47.0664 37.6918C49.9446 37.6918 52.7048 38.8351 54.74 40.8703C56.7751 42.9054 57.9185 45.6657 57.9185 48.5438Z" stroke="url(#paint7_linear_287_2342)" stroke-width="0.25"/>
</g>
<g filter="url(#filter2_dd_287_2342)">
<path d="M107.779 76.5252C107.779 97.4133 90.8366 103.223 69.9486 103.223C49.0605 103.223 32.1177 97.4133 32.1177 76.5252C32.1177 55.6372 49.0605 38.6943 69.9486 38.6943C90.8366 38.6943 107.779 55.6101 107.779 76.5252Z" fill="url(#paint8_radial_287_2342)"/>
<path d="M107.779 76.5252C107.779 97.4133 90.8366 103.223 69.9486 103.223C49.0605 103.223 32.1177 97.4133 32.1177 76.5252C32.1177 55.6372 49.0605 38.6943 69.9486 38.6943C90.8366 38.6943 107.779 55.6101 107.779 76.5252Z" fill="url(#paint9_radial_287_2342)"/>
</g>
<path d="M107.779 76.5252C107.779 97.4133 90.8366 103.223 69.9486 103.223C49.0605 103.223 32.1177 97.4133 32.1177 76.5252C32.1177 55.6372 49.0605 38.6943 69.9486 38.6943C90.8366 38.6943 107.779 55.6101 107.779 76.5252Z" fill="url(#paint10_radial_287_2342)"/>
<path d="M107.779 76.5252C107.779 97.4133 90.8366 103.223 69.9486 103.223C49.0605 103.223 32.1177 97.4133 32.1177 76.5252C32.1177 55.6372 49.0605 38.6943 69.9486 38.6943C90.8366 38.6943 107.779 55.6101 107.779 76.5252Z" fill="url(#paint11_linear_287_2342)"/>
<path d="M107.779 76.5252C107.779 97.4133 90.8366 103.223 69.9486 103.223C49.0605 103.223 32.1177 97.4133 32.1177 76.5252C32.1177 55.6372 49.0605 38.6943 69.9486 38.6943C90.8366 38.6943 107.779 55.6101 107.779 76.5252Z" fill="url(#paint12_radial_287_2342)"/>
<path d="M61.034 76.328C56.705 80.6542 50.9412 80.2948 47.3959 76.328C43.321 71.9991 45.4341 66.5541 49.3388 62.3089C53.7083 57.5585 56.9131 56.3317 60.8854 60.3039C64.8576 64.2761 65.0062 72.3557 61.034 76.328Z" fill="url(#paint13_linear_287_2342)"/>
<path d="M61.034 76.328C56.705 80.6542 50.9412 80.2948 47.3959 76.328C43.321 71.9991 45.4341 66.5541 49.3388 62.3089C53.7083 57.5585 56.9131 56.3317 60.8854 60.3039C64.8576 64.2761 65.0062 72.3557 61.034 76.328Z" fill="url(#paint14_radial_287_2342)"/>
<path d="M77.5661 76.328C81.895 80.6542 87.6588 80.2948 91.2041 76.328C95.279 71.9991 93.1659 66.5541 89.2612 62.3089C84.8918 57.5585 81.6869 56.3317 77.7147 60.3039C73.7424 64.2761 73.5938 72.3557 77.5661 76.328Z" fill="url(#paint15_linear_287_2342)"/>
<path d="M77.5661 76.328C81.895 80.6542 87.6588 80.2948 91.2041 76.328C95.279 71.9991 93.1659 66.5541 89.2612 62.3089C84.8918 57.5585 81.6869 56.3317 77.7147 60.3039C73.7424 64.2761 73.5938 72.3557 77.5661 76.328Z" fill="url(#paint16_radial_287_2342)"/>
<g filter="url(#filter3_f_287_2342)">
<path d="M66.2466 74.8634H70.8323C72.6022 74.8634 73.4804 76.7387 72.5671 78.1952C71.5105 79.8868 70.027 80.9515 70.027 80.9515C69.6047 81.2915 69.0828 81.4841 68.5408 81.5C67.9988 81.4841 67.4769 81.2915 67.0546 80.9515C67.0546 80.9515 65.5684 79.8868 64.5118 78.1952C63.5985 76.736 64.4794 74.8634 66.2466 74.8634Z" fill="#A081BC"/>
</g>
<path d="M66.9164 74.0608H71.7101C73.5557 74.0608 74.4744 76.0199 73.5206 77.5439C72.8103 78.6503 71.9123 79.6243 70.867 80.4218C70.4253 80.7768 69.8797 80.978 69.3132 80.9947C68.7467 80.978 68.2012 80.7768 67.7595 80.4218C67.7595 80.4218 66.2084 79.3112 65.1059 77.5439C64.152 76.0199 65.0708 74.0608 66.9164 74.0608Z" fill="url(#paint17_linear_287_2342)"/>
<path d="M66.9164 74.0608H71.7101C73.5557 74.0608 74.4744 76.0199 73.5206 77.5439C72.8103 78.6503 71.9123 79.6243 70.867 80.4218C70.4253 80.7768 69.8797 80.978 69.3132 80.9947C68.7467 80.978 68.2012 80.7768 67.7595 80.4218C67.7595 80.4218 66.2084 79.3112 65.1059 77.5439C64.152 76.0199 65.0708 74.0608 66.9164 74.0608Z" fill="url(#paint18_linear_287_2342)"/>
<path d="M66.9164 74.0608H71.7101C73.5557 74.0608 74.4744 76.0199 73.5206 77.5439C72.8103 78.6503 71.9123 79.6243 70.867 80.4218C70.4253 80.7768 69.8797 80.978 69.3132 80.9947C68.7467 80.978 68.2012 80.7768 67.7595 80.4218C67.7595 80.4218 66.2084 79.3112 65.1059 77.5439C64.152 76.0199 65.0708 74.0608 66.9164 74.0608Z" fill="url(#paint19_linear_287_2342)"/>
<path d="M66.9164 74.0608H71.7101C73.5557 74.0608 74.4744 76.0199 73.5206 77.5439C72.8103 78.6503 71.9123 79.6243 70.867 80.4218C70.4253 80.7768 69.8797 80.978 69.3132 80.9947C68.7467 80.978 68.2012 80.7768 67.7595 80.4218C67.7595 80.4218 66.2084 79.3112 65.1059 77.5439C64.152 76.0199 65.0708 74.0608 66.9164 74.0608Z" fill="url(#paint20_radial_287_2342)"/>
<path d="M66.9164 74.0608H71.7101C73.5557 74.0608 74.4744 76.0199 73.5206 77.5439C72.8103 78.6503 71.9123 79.6243 70.867 80.4218C70.4253 80.7768 69.8797 80.978 69.3132 80.9947C68.7467 80.978 68.2012 80.7768 67.7595 80.4218C67.7595 80.4218 66.2084 79.3112 65.1059 77.5439C64.152 76.0199 65.0708 74.0608 66.9164 74.0608Z" fill="url(#paint21_radial_287_2342)"/>
<g filter="url(#filter4_f_287_2342)">
<path d="M57.3914 64.3572H57.3887C56.2933 64.3572 55.4053 65.2452 55.4053 66.3406V69.9534C55.4053 71.0489 56.2933 71.9369 57.3887 71.9369H57.3914C58.4868 71.9369 59.3748 71.0489 59.3748 69.9534V66.3406C59.3748 65.2452 58.4868 64.3572 57.3914 64.3572Z" fill="#45366A"/>
</g>
<g filter="url(#filter5_f_287_2342)">
<path d="M79.0926 64.3572H79.0899C77.9945 64.3572 77.1064 65.2452 77.1064 66.3406V69.9534C77.1064 71.0489 77.9945 71.9369 79.0899 71.9369H79.0926C80.188 71.9369 81.076 71.0489 81.076 69.9534V66.3406C81.076 65.2452 80.188 64.3572 79.0926 64.3572Z" fill="#45366A"/>
</g>
<path d="M58.513 63.26H58.5103C57.4149 63.26 56.5269 64.148 56.5269 65.2434V69.3211C56.5269 70.4165 57.4149 71.3045 58.5103 71.3045H58.513C59.6084 71.3045 60.4964 70.4165 60.4964 69.3211V65.2434C60.4964 64.148 59.6084 63.26 58.513 63.26Z" fill="url(#paint22_linear_287_2342)"/>
<path d="M58.513 63.26H58.5103C57.4149 63.26 56.5269 64.148 56.5269 65.2434V69.3211C56.5269 70.4165 57.4149 71.3045 58.5103 71.3045H58.513C59.6084 71.3045 60.4964 70.4165 60.4964 69.3211V65.2434C60.4964 64.148 59.6084 63.26 58.513 63.26Z" fill="url(#paint23_linear_287_2342)"/>
<path d="M80.0871 63.2573H80.0898C81.1852 63.2573 82.0732 64.1453 82.0732 65.2407V69.3184C82.0732 70.4138 81.1852 71.3018 80.0898 71.3018H80.0871C78.9917 71.3018 78.1037 70.4138 78.1037 69.3184V65.2407C78.1037 64.1453 78.9917 63.2573 80.0871 63.2573Z" fill="url(#paint24_linear_287_2342)"/>
<path d="M80.0871 63.2573H80.0898C81.1852 63.2573 82.0732 64.1453 82.0732 65.2407V69.3184C82.0732 70.4138 81.1852 71.3018 80.0898 71.3018H80.0871C78.9917 71.3018 78.1037 70.4138 78.1037 69.3184V65.2407C78.1037 64.1453 78.9917 63.2573 80.0871 63.2573Z" fill="url(#paint25_linear_287_2342)"/>
<g filter="url(#filter6_f_287_2342)">
<path fill-rule="evenodd" clip-rule="evenodd" d="M61.2366 85.0345C61.2446 84.8615 61.2174 84.6887 61.1566 84.5266C61.0959 84.3644 61.003 84.2162 60.8834 84.091C60.7638 83.9658 60.62 83.8661 60.4608 83.798C60.3016 83.73 60.1303 83.6948 59.9571 83.6948C59.784 83.6948 59.6126 83.73 59.4534 83.798C59.2942 83.8661 59.1505 83.9658 59.0309 84.091C58.9113 84.2162 58.8183 84.3644 58.7576 84.5266C58.6969 84.6887 58.6697 84.8615 58.6776 85.0345C58.6776 88.315 61.1474 91.1685 64.4144 91.1685C66.2573 91.1685 67.8462 90.2579 68.8839 88.877C69.9188 90.2552 71.5104 91.1658 73.3533 91.1658C76.6203 91.1658 79.0901 88.315 79.0901 85.0318C79.098 84.8588 79.0708 84.686 79.0101 84.5239C78.9494 84.3617 78.8564 84.2135 78.7368 84.0883C78.6173 83.9631 78.4735 83.8634 78.3143 83.7953C78.1551 83.7272 77.9837 83.6921 77.8106 83.6921C77.6374 83.6921 77.4661 83.7272 77.3069 83.7953C77.1477 83.8634 77.0039 83.9631 76.8843 84.0883C76.7647 84.2135 76.6718 84.3617 76.6111 84.5239C76.5503 84.686 76.5231 84.8588 76.5311 85.0318C76.5311 87.1071 75.0044 88.6041 73.3533 88.6041C71.7023 88.6041 70.1782 87.1071 70.1782 85.0345C70.1782 84.6948 70.0433 84.369 69.8031 84.1288C69.5629 83.8886 69.2371 83.7537 68.8974 83.7537H68.8703C68.5306 83.7537 68.2049 83.8886 67.9646 84.1288C67.7244 84.369 67.5895 84.6948 67.5895 85.0345C67.5895 87.1071 66.0655 88.6041 64.4144 88.6041C62.7634 88.6041 61.2366 87.1071 61.2366 85.0345Z" fill="#A081BC"/>
</g>
<path d="M69.2865 83.9103C69.2865 86.7341 67.1788 89.0283 64.5847 89.0283C61.9905 89.0283 59.8828 86.7341 59.8828 83.9103" stroke="url(#paint26_radial_287_2342)" stroke-miterlimit="10" stroke-linecap="round"/>
<path d="M78.7172 83.9103C78.7172 86.7341 76.6094 89.0283 74.0153 89.0283C71.4212 89.0283 69.3135 86.7341 69.3135 83.9103" stroke="url(#paint27_radial_287_2342)" stroke-miterlimit="10" stroke-linecap="round"/>
<g filter="url(#filter7_f_287_2342)">
<path d="M59.8828 83.9103C59.9963 85.3181 61.3258 88.1825 64.2334 88.3851C67.8624 88.6391 69.1298 85.7694 69.2568 83.9103C69.1865 85.4019 70.8186 88.5986 74.2396 88.5986C77.1769 88.5986 78.5605 85.4019 78.7145 83.9103" stroke="url(#paint28_linear_287_2342)" stroke-width="0.25" stroke-linecap="round" stroke-linejoin="round"/>
</g>
<g filter="url(#filter8_f_287_2342)">
<path d="M59.6912 64.9408C59.6912 64.6767 59.4776 64.4625 59.2142 64.4625C58.9508 64.4625 58.7373 64.6767 58.7373 64.9408V68.9671C58.7373 69.2313 58.9508 69.4454 59.2142 69.4454C59.4776 69.4454 59.6912 69.2313 59.6912 68.9671V64.9408Z" fill="#665A5C"/>
</g>
<g filter="url(#filter9_f_287_2342)">
<path d="M81.2249 64.9408C81.2249 64.6767 81.0113 64.4625 80.7479 64.4625C80.4845 64.4625 80.271 64.6767 80.271 64.9408V68.9671C80.271 69.2313 80.4845 69.4454 80.7479 69.4454C81.0113 69.4454 81.2249 69.2313 81.2249 68.9671V64.9408Z" fill="#665A5C"/>
</g>
<defs>
<filter id="filter0_f_287_2342" x="81.045" y="37.0093" width="23.0662" height="23.0677" filterUnits="userSpaceOnUse" color-interpolation-filters="sRGB">
<feFlood flood-opacity="0" result="BackgroundImageFix"/>
<feBlend mode="normal" in="SourceGraphic" in2="BackgroundImageFix" result="shape"/>
<feGaussianBlur stdDeviation="0.3" result="effect1_foregroundBlur_287_2342"/>
</filter>
<filter id="filter1_f_287_2342" x="35.5894" y="37.0668" width="22.9541" height="22.9541" filterUnits="userSpaceOnUse" color-interpolation-filters="sRGB">
<feFlood flood-opacity="0" result="BackgroundImageFix"/>
<feBlend mode="normal" in="SourceGraphic" in2="BackgroundImageFix" result="shape"/>
<feGaussianBlur stdDeviation="0.25" result="effect1_foregroundBlur_287_2342"/>
</filter>
<filter id="filter2_dd_287_2342" x="30.1177" y="35.6943" width="80.6616" height="70.0287" filterUnits="userSpaceOnUse" color-interpolation-filters="sRGB">
<feFlood flood-opacity="0" result="BackgroundImageFix"/>
<feColorMatrix in="SourceAlpha" type="matrix" values="0 0 0 0 0 0 0 0 0 0 0 0 0 0 0 0 0 0 127 0" result="hardAlpha"/>
<feOffset dx="1" dy="0.5"/>
<feGaussianBlur stdDeviation="1"/>
<feComposite in2="hardAlpha" operator="out"/>
<feColorMatrix type="matrix" values="0 0 0 0 0.596078 0 0 0 0 0.584314 0 0 0 0 0.643137 0 0 0 0.6 0"/>
<feBlend mode="normal" in2="BackgroundImageFix" result="effect1_dropShadow_287_2342"/>
<feColorMatrix in="SourceAlpha" type="matrix" values="0 0 0 0 0 0 0 0 0 0 0 0 0 0 0 0 0 0 127 0" result="hardAlpha"/>
<feOffset dy="-1"/>
<feGaussianBlur stdDeviation="1"/>
<feComposite in2="hardAlpha" operator="out"/>
<feColorMatrix type="matrix" values="0 0 0 0 0.686275 0 0 0 0 0.490196 0 0 0 0 0.862745 0 0 0 1 0"/>
<feBlend mode="normal" in2="effect1_dropShadow_287_2342" result="effect2_dropShadow_287_2342"/>
<feBlend mode="normal" in="SourceGraphic" in2="effect2_dropShadow_287_2342" result="shape"/>
</filter>
<filter id="filter3_f_287_2342" x="63.6465" y="74.3634" width="9.78662" height="7.6366" filterUnits="userSpaceOnUse" color-interpolation-filters="sRGB">
<feFlood flood-opacity="0" result="BackgroundImageFix"/>
<feBlend mode="normal" in="SourceGraphic" in2="BackgroundImageFix" result="shape"/>
<feGaussianBlur stdDeviation="0.25" result="effect1_foregroundBlur_287_2342"/>
</filter>
<filter id="filter4_f_287_2342" x="54.9053" y="63.8572" width="4.96973" height="8.57971" filterUnits="userSpaceOnUse" color-interpolation-filters="sRGB">
<feFlood flood-opacity="0" result="BackgroundImageFix"/>
<feBlend mode="normal" in="SourceGraphic" in2="BackgroundImageFix" result="shape"/>
<feGaussianBlur stdDeviation="0.25" result="effect1_foregroundBlur_287_2342"/>
</filter>
<filter id="filter5_f_287_2342" x="76.6064" y="63.8572" width="4.96973" height="8.57971" filterUnits="userSpaceOnUse" color-interpolation-filters="sRGB">
<feFlood flood-opacity="0" result="BackgroundImageFix"/>
<feBlend mode="normal" in="SourceGraphic" in2="BackgroundImageFix" result="shape"/>
<feGaussianBlur stdDeviation="0.25" result="effect1_foregroundBlur_287_2342"/>
</filter>
<filter id="filter6_f_287_2342" x="58.1763" y="83.1921" width="21.415" height="8.47632" filterUnits="userSpaceOnUse" color-interpolation-filters="sRGB">
<feFlood flood-opacity="0" result="BackgroundImageFix"/>
<feBlend mode="normal" in="SourceGraphic" in2="BackgroundImageFix" result="shape"/>
<feGaussianBlur stdDeviation="0.25" result="effect1_foregroundBlur_287_2342"/>
</filter>
<filter id="filter7_f_287_2342" x="59.5078" y="83.5353" width="19.5815" height="5.43835" filterUnits="userSpaceOnUse" color-interpolation-filters="sRGB">
<feFlood flood-opacity="0" result="BackgroundImageFix"/>
<feBlend mode="normal" in="SourceGraphic" in2="BackgroundImageFix" result="shape"/>
<feGaussianBlur stdDeviation="0.125" result="effect1_foregroundBlur_287_2342"/>
</filter>
<filter id="filter8_f_287_2342" x="58.2373" y="63.9625" width="1.9541" height="5.98291" filterUnits="userSpaceOnUse" color-interpolation-filters="sRGB">
<feFlood flood-opacity="0" result="BackgroundImageFix"/>
<feBlend mode="normal" in="SourceGraphic" in2="BackgroundImageFix" result="shape"/>
<feGaussianBlur stdDeviation="0.25" result="effect1_foregroundBlur_287_2342"/>
</filter>
<filter id="filter9_f_287_2342" x="79.771" y="63.9625" width="1.9541" height="5.98291" filterUnits="userSpaceOnUse" color-interpolation-filters="sRGB">
<feFlood flood-opacity="0" result="BackgroundImageFix"/>
<feBlend mode="normal" in="SourceGraphic" in2="BackgroundImageFix" result="shape"/>
<feGaussianBlur stdDeviation="0.25" result="effect1_foregroundBlur_287_2342"/>
</filter>
<linearGradient id="paint0_linear_287_2342" x1="38.535" y1="53.7159" x2="52.8891" y2="35.1383" gradientUnits="userSpaceOnUse">
<stop stop-color="#6363A2"/>
<stop offset="1" stop-color="#5A4A8A"/>
</linearGradient>
<linearGradient id="paint1_linear_287_2342" x1="50.1869" y1="48.5439" x2="47.909" y2="33.8736" gradientUnits="userSpaceOnUse">
<stop offset="0.549" stop-color="#4D4175" stop-opacity="0"/>
<stop offset="1" stop-color="#4D4175"/>
</linearGradient>
<linearGradient id="paint2_linear_287_2342" x1="45.2068" y1="48.9465" x2="42.7153" y2="46.8766" gradientUnits="userSpaceOnUse">
<stop stop-color="#4E4B84"/>
<stop offset="1" stop-color="#4E4B84" stop-opacity="0"/>
</linearGradient>
<radialGradient id="paint3_radial_287_2342" cx="0" cy="0" r="1" gradientUnits="userSpaceOnUse" gradientTransform="translate(58.7178 38.8565) rotate(146.983) scale(27.8957 12.7541)">
<stop offset="0.869" stop-color="#4E4B84" stop-opacity="0"/>
<stop offset="1" stop-color="#4E4B84"/>
</radialGradient>
<radialGradient id="paint4_radial_287_2342" cx="0" cy="0" r="1" gradientUnits="userSpaceOnUse" gradientTransform="translate(59.3723 38.9406) rotate(153.909) scale(10.3682 14.5378)">
<stop stop-color="#5A4482"/>
<stop offset="1" stop-color="#5A4482" stop-opacity="0"/>
</radialGradient>
<linearGradient id="paint5_linear_287_2342" x1="83.7136" y1="44.3447" x2="104.885" y2="45.358" gradientUnits="userSpaceOnUse">
<stop stop-color="#6363A2"/>
<stop offset="1" stop-color="#5A4A8A"/>
</linearGradient>
<linearGradient id="paint6_linear_287_2342" x1="103.769" y1="54.1806" x2="85.3591" y2="37.6728" gradientUnits="userSpaceOnUse">
<stop stop-color="#9A8BBD" stop-opacity="0"/>
<stop offset="0.378" stop-color="#A997CF"/>
<stop offset="1" stop-color="#9A8BBD" stop-opacity="0"/>
</linearGradient>
<linearGradient id="paint7_linear_287_2342" x1="58.2562" y1="54.1806" x2="39.8461" y2="37.6729" gradientUnits="userSpaceOnUse">
<stop stop-color="#9A8BBD" stop-opacity="0"/>
<stop offset="0.378" stop-color="#A997CF"/>
<stop offset="1" stop-color="#9A8BBD" stop-opacity="0"/>
</linearGradient>
<radialGradient id="paint8_radial_287_2342" cx="0" cy="0" r="1" gradientUnits="userSpaceOnUse" gradientTransform="translate(69.9486 50.5435) rotate(90) scale(49.7022)">
<stop stop-color="#EBE3F5"/>
<stop offset="1" stop-color="#DAC8ED"/>
</radialGradient>
<radialGradient id="paint9_radial_287_2342" cx="0" cy="0" r="1" gradientUnits="userSpaceOnUse" gradientTransform="translate(69.9486 100.753) rotate(-90) scale(29.7918 84.6277)">
<stop stop-color="#C7B0DE"/>
<stop offset="1" stop-color="#C7B0DE" stop-opacity="0"/>
</radialGradient>
<radialGradient id="paint10_radial_287_2342" cx="0" cy="0" r="1" gradientUnits="userSpaceOnUse" gradientTransform="translate(97.4759 54.1401) rotate(138.552) scale(17.3495 44.4235)">
<stop stop-color="#F4F2F8"/>
<stop offset="1" stop-color="#F4F2F8" stop-opacity="0"/>
</radialGradient>
<linearGradient id="paint11_linear_287_2342" x1="110.144" y1="90.9577" x2="97.8137" y2="87.0719" gradientUnits="userSpaceOnUse">
<stop stop-color="#E1D3F1"/>
<stop offset="1" stop-color="#E1D3F1" stop-opacity="0"/>
</linearGradient>
<radialGradient id="paint12_radial_287_2342" cx="0" cy="0" r="1" gradientUnits="userSpaceOnUse" gradientTransform="translate(48.4995 62.5838) rotate(23.798) scale(65.7112 50.0338)">
<stop offset="0.897" stop-color="#BAB0C7" stop-opacity="0"/>
<stop offset="0.992" stop-color="#BAB0C7"/>
</radialGradient>
<linearGradient id="paint13_linear_287_2342" x1="54.4487" y1="58.2448" x2="54.4487" y2="75.6741" gradientUnits="userSpaceOnUse">
<stop stop-color="#706AA5"/>
<stop offset="1" stop-color="#604685"/>
</linearGradient>
<radialGradient id="paint14_radial_287_2342" cx="0" cy="0" r="1" gradientUnits="userSpaceOnUse" gradientTransform="translate(66.5708 68.6834) rotate(180) scale(10.3022 14.5833)">
<stop offset="0.014" stop-color="#5F4E87"/>
<stop offset="1" stop-color="#5F4E87" stop-opacity="0"/>
</radialGradient>
<linearGradient id="paint15_linear_287_2342" x1="84.1513" y1="57.926" x2="84.1513" y2="82.3431" gradientUnits="userSpaceOnUse">
<stop stop-color="#706AA5"/>
<stop offset="1" stop-color="#604685"/>
</linearGradient>
<radialGradient id="paint16_radial_287_2342" cx="0" cy="0" r="1" gradientUnits="userSpaceOnUse" gradientTransform="translate(73.3263 74.5743) rotate(-33.1994) scale(10.7617 15.2339)">
<stop offset="0.014" stop-color="#5F4E87"/>
<stop offset="1" stop-color="#5F4E87" stop-opacity="0"/>
</radialGradient>
<linearGradient id="paint17_linear_287_2342" x1="68.9457" y1="71.7882" x2="70.078" y2="81.1514" gradientUnits="userSpaceOnUse">
<stop stop-color="#5F5254"/>
<stop offset="1" stop-color="#2E2127"/>
</linearGradient>
<linearGradient id="paint18_linear_287_2342" x1="68.6755" y1="75.8794" x2="68.6755" y2="72.6259" gradientUnits="userSpaceOnUse">
<stop offset="0.147" stop-color="#34222C" stop-opacity="0"/>
<stop offset="0.873" stop-color="#34222C"/>
</linearGradient>
<linearGradient id="paint19_linear_287_2342" x1="67.0461" y1="81.3378" x2="67.0461" y2="76.4171" gradientUnits="userSpaceOnUse">
<stop stop-color="#552D52"/>
<stop offset="0.714" stop-color="#552D52" stop-opacity="0"/>
</linearGradient>
<radialGradient id="paint20_radial_287_2342" cx="0" cy="0" r="1" gradientUnits="userSpaceOnUse" gradientTransform="translate(63.5305 78.9167) rotate(-18.752) scale(12.113 5.43903)">
<stop offset="0.828" stop-color="#5C5458" stop-opacity="0"/>
<stop offset="0.935" stop-color="#5C5458"/>
</radialGradient>
<radialGradient id="paint21_radial_287_2342" cx="0" cy="0" r="1" gradientUnits="userSpaceOnUse" gradientTransform="translate(73.9043 74.9958) rotate(148.131) scale(3.99681 1.43781)">
<stop stop-color="#6A5C5E"/>
<stop offset="0.808" stop-color="#6A5C5E" stop-opacity="0"/>
</radialGradient>
<linearGradient id="paint22_linear_287_2342" x1="60.2802" y1="67.6511" x2="57.9996" y2="67.6511" gradientUnits="userSpaceOnUse">
<stop stop-color="#594C4F"/>
<stop offset="1" stop-color="#413039"/>
</linearGradient>
<linearGradient id="paint23_linear_287_2342" x1="61.1152" y1="72.2097" x2="61.1152" y2="69.34" gradientUnits="userSpaceOnUse">
<stop stop-color="#492847"/>
<stop offset="1" stop-color="#552D52" stop-opacity="0"/>
</linearGradient>
<linearGradient id="paint24_linear_287_2342" x1="82.3191" y1="66.7756" x2="79.6575" y2="66.7756" gradientUnits="userSpaceOnUse">
<stop stop-color="#594C4F"/>
<stop offset="1" stop-color="#413039"/>
</linearGradient>
<linearGradient id="paint25_linear_287_2342" x1="77.4849" y1="71.3018" x2="77.4849" y2="68.832" gradientUnits="userSpaceOnUse">
<stop stop-color="#492847"/>
<stop offset="1" stop-color="#552D52" stop-opacity="0"/>
</linearGradient>
<radialGradient id="paint26_radial_287_2342" cx="0" cy="0" r="1" gradientUnits="userSpaceOnUse" gradientTransform="translate(64.5684 84.9182) rotate(90) scale(4.64441 10.1154)">
<stop offset="0.006" stop-color="#423539"/>
<stop offset="1" stop-color="#472849"/>
</radialGradient>
<radialGradient id="paint27_radial_287_2342" cx="0" cy="0" r="1" gradientUnits="userSpaceOnUse" gradientTransform="translate(73.9991 86.4693) rotate(90) scale(4.40249 7.64008)">
<stop offset="0.006" stop-color="#423539"/>
<stop offset="1" stop-color="#472849"/>
</radialGradient>
<linearGradient id="paint28_linear_287_2342" x1="59.3748" y1="85.2614" x2="79.6846" y2="85.2614" gradientUnits="userSpaceOnUse">
<stop stop-color="#5F5356"/>
<stop offset="0.289" stop-color="#5F5356" stop-opacity="0"/>
<stop offset="0.445" stop-color="#5F5356" stop-opacity="0"/>
<stop offset="0.534" stop-color="#5F5356"/>
<stop offset="1" stop-color="#5F5356" stop-opacity="0"/>
</linearGradient>
</defs>
</svg>
