<svg xmlns="http://www.w3.org/2000/svg" width="140" height="140" fill="none"><rect width="137" height="137" x="1.5" y="1.5" fill="#fff" stroke="#111" stroke-width="3" rx="68.5"/><path fill="url(#a)" d="M47.066 60.852a12.307 12.307 0 0 0 4.71-23.68 12.307 12.307 0 0 0-17.019 11.372 12.309 12.309 0 0 0 12.309 12.308Z"/><path fill="url(#b)" d="M47.066 60.852a12.307 12.307 0 0 0 4.71-23.68 12.307 12.307 0 0 0-17.019 11.372 12.309 12.309 0 0 0 12.309 12.308Z"/><path fill="url(#c)" d="M47.066 60.852a12.307 12.307 0 0 0 4.71-23.68 12.307 12.307 0 0 0-17.019 11.372 12.309 12.309 0 0 0 12.309 12.308Z"/><path fill="url(#d)" d="M47.066 60.852a12.307 12.307 0 0 0 4.71-23.68 12.307 12.307 0 0 0-17.019 11.372 12.309 12.309 0 0 0 12.309 12.308Z"/><path fill="url(#e)" d="M47.066 60.852a12.307 12.307 0 0 0 4.71-23.68 12.307 12.307 0 0 0-17.019 11.372 12.309 12.309 0 0 0 12.309 12.308Z"/><path fill="url(#f)" d="M92.58 60.852a12.308 12.308 0 1 0 0-24.615 12.308 12.308 0 0 0 0 24.615Z"/><g filter="url(#g)"><path stroke="url(#h)" stroke-width=".3" d="M103.361 48.544a10.784 10.784 0 1 1-21.567 0 10.784 10.784 0 0 1 21.567 0Z"/></g><g filter="url(#i)"><path stroke="url(#j)" stroke-width=".25" d="M57.919 48.544a10.852 10.852 0 1 1-21.705 0 10.852 10.852 0 0 1 21.705 0Z"/></g><g filter="url(#k)"><path fill="url(#l)" d="M107.779 76.525c0 20.888-16.942 26.698-37.83 26.698-20.889 0-37.831-5.81-37.831-26.698s16.942-37.83 37.83-37.83c20.889 0 37.831 16.915 37.831 37.83Z"/><path fill="url(#m)" d="M107.779 76.525c0 20.888-16.942 26.698-37.83 26.698-20.889 0-37.831-5.81-37.831-26.698s16.942-37.83 37.83-37.83c20.889 0 37.831 16.915 37.831 37.83Z"/></g><path fill="url(#n)" d="M107.779 76.525c0 20.888-16.942 26.698-37.83 26.698-20.889 0-37.831-5.81-37.831-26.698s16.942-37.83 37.83-37.83c20.889 0 37.831 16.915 37.831 37.83Z"/><path fill="url(#o)" d="M107.779 76.525c0 20.888-16.942 26.698-37.83 26.698-20.889 0-37.831-5.81-37.831-26.698s16.942-37.83 37.83-37.83c20.889 0 37.831 16.915 37.831 37.83Z"/><path fill="url(#p)" d="M107.779 76.525c0 20.888-16.942 26.698-37.83 26.698-20.889 0-37.831-5.81-37.831-26.698s16.942-37.83 37.83-37.83c20.889 0 37.831 16.915 37.831 37.83Z"/><path fill="url(#q)" d="M61.034 76.328c-4.329 4.326-10.093 3.967-13.638 0-4.075-4.329-1.962-9.774 1.943-14.02 4.37-4.75 7.574-5.976 11.546-2.004 3.973 3.972 4.121 12.052.149 16.024Z"/><path fill="url(#r)" d="M61.034 76.328c-4.329 4.326-10.093 3.967-13.638 0-4.075-4.329-1.962-9.774 1.943-14.02 4.37-4.75 7.574-5.976 11.546-2.004 3.973 3.972 4.121 12.052.149 16.024Z"/><path fill="url(#s)" d="M77.566 76.328c4.329 4.326 10.093 3.967 13.638 0 4.075-4.329 1.962-9.774-1.943-14.02-4.37-4.75-7.574-5.976-11.546-2.004-3.973 3.972-4.121 12.052-.149 16.024Z"/><path fill="url(#t)" d="M77.566 76.328c4.329 4.326 10.093 3.967 13.638 0 4.075-4.329 1.962-9.774-1.943-14.02-4.37-4.75-7.574-5.976-11.546-2.004-3.973 3.972-4.121 12.052-.149 16.024Z"/><g filter="url(#u)"><path fill="#A081BC" d="M66.247 74.863h4.585c1.77 0 2.648 1.876 1.735 3.332-1.056 1.692-2.54 2.757-2.54 2.757-.422.34-.944.532-1.486.548a2.486 2.486 0 0 1-1.486-.549s-1.487-1.064-2.543-2.756c-.913-1.459-.033-3.332 1.735-3.332Z"/></g><path fill="url(#v)" d="M66.916 74.06h4.794c1.846 0 2.764 1.96 1.81 3.484a11.295 11.295 0 0 1-2.653 2.878 2.603 2.603 0 0 1-1.554.573 2.603 2.603 0 0 1-1.553-.573s-1.552-1.11-2.654-2.878c-.954-1.524-.035-3.483 1.81-3.483Z"/><path fill="url(#w)" d="M66.916 74.06h4.794c1.846 0 2.764 1.96 1.81 3.484a11.295 11.295 0 0 1-2.653 2.878 2.603 2.603 0 0 1-1.554.573 2.603 2.603 0 0 1-1.553-.573s-1.552-1.11-2.654-2.878c-.954-1.524-.035-3.483 1.81-3.483Z"/><path fill="url(#x)" d="M66.916 74.06h4.794c1.846 0 2.764 1.96 1.81 3.484a11.295 11.295 0 0 1-2.653 2.878 2.603 2.603 0 0 1-1.554.573 2.603 2.603 0 0 1-1.553-.573s-1.552-1.11-2.654-2.878c-.954-1.524-.035-3.483 1.81-3.483Z"/><path fill="url(#y)" d="M66.916 74.06h4.794c1.846 0 2.764 1.96 1.81 3.484a11.295 11.295 0 0 1-2.653 2.878 2.603 2.603 0 0 1-1.554.573 2.603 2.603 0 0 1-1.553-.573s-1.552-1.11-2.654-2.878c-.954-1.524-.035-3.483 1.81-3.483Z"/><path fill="url(#z)" d="M66.916 74.06h4.794c1.846 0 2.764 1.96 1.81 3.484a11.295 11.295 0 0 1-2.653 2.878 2.603 2.603 0 0 1-1.554.573 2.603 2.603 0 0 1-1.553-.573s-1.552-1.11-2.654-2.878c-.954-1.524-.035-3.483 1.81-3.483Z"/><g filter="url(#A)"><path fill="#45366A" d="M57.391 64.357h-.002a1.983 1.983 0 0 0-1.984 1.984v3.612c0 1.096.888 1.984 1.984 1.984h.002a1.983 1.983 0 0 0 1.984-1.984v-3.612a1.983 1.983 0 0 0-1.984-1.984Z"/></g><g filter="url(#B)"><path fill="#45366A" d="M79.093 64.357h-.003a1.983 1.983 0 0 0-1.984 1.984v3.612c0 1.096.889 1.984 1.984 1.984h.003a1.983 1.983 0 0 0 1.983-1.984v-3.612a1.983 1.983 0 0 0-1.983-1.984Z"/></g><path fill="url(#C)" d="M58.513 63.26h-.003a1.983 1.983 0 0 0-1.983 1.983v4.078c0 1.096.888 1.984 1.983 1.984h.003a1.983 1.983 0 0 0 1.983-1.984v-4.078a1.983 1.983 0 0 0-1.983-1.983Z"/><path fill="url(#D)" d="M58.513 63.26h-.003a1.983 1.983 0 0 0-1.983 1.983v4.078c0 1.096.888 1.984 1.983 1.984h.003a1.983 1.983 0 0 0 1.983-1.984v-4.078a1.983 1.983 0 0 0-1.983-1.983Z"/><path fill="url(#E)" d="M80.087 63.257h.003c1.095 0 1.983.888 1.983 1.984v4.077a1.983 1.983 0 0 1-1.983 1.984h-.003a1.983 1.983 0 0 1-1.983-1.984v-4.077c0-1.096.888-1.984 1.983-1.984Z"/><path fill="url(#F)" d="M80.087 63.257h.003c1.095 0 1.983.888 1.983 1.984v4.077a1.983 1.983 0 0 1-1.983 1.984h-.003a1.983 1.983 0 0 1-1.983-1.984v-4.077c0-1.096.888-1.984 1.983-1.984Z"/><g filter="url(#G)"><path fill="#A081BC" fill-rule="evenodd" d="M61.237 85.034a1.278 1.278 0 0 0-1.28-1.34 1.283 1.283 0 0 0-1.28 1.34c0 3.281 2.47 6.134 5.737 6.134 1.843 0 3.432-.91 4.47-2.291 1.035 1.378 2.626 2.289 4.47 2.289 3.266 0 5.736-2.851 5.736-6.134a1.282 1.282 0 1 0-2.559 0c0 2.075-1.527 3.572-3.178 3.572-1.65 0-3.175-1.497-3.175-3.57a1.28 1.28 0 0 0-1.28-1.28h-.028a1.281 1.281 0 0 0-1.28 1.28c0 2.073-1.525 3.57-3.176 3.57-1.65 0-3.177-1.497-3.177-3.57Z" clip-rule="evenodd"/></g><path stroke="url(#H)" stroke-linecap="round" stroke-miterlimit="10" d="M69.287 83.91c0 2.824-2.108 5.118-4.702 5.118s-4.702-2.294-4.702-5.118"/><path stroke="url(#I)" stroke-linecap="round" stroke-miterlimit="10" d="M78.717 83.91c0 2.824-2.108 5.118-4.702 5.118s-4.701-2.294-4.701-5.118"/><g filter="url(#J)"><path stroke="url(#K)" stroke-linecap="round" stroke-linejoin="round" stroke-width=".25" d="M59.883 83.91c.113 1.408 1.443 4.273 4.35 4.475 3.63.254 4.897-2.616 5.024-4.475-.07 1.492 1.562 4.689 4.983 4.689 2.937 0 4.32-3.197 4.475-4.689"/></g><g filter="url(#L)"><path fill="#665A5C" d="M59.691 64.94a.478.478 0 1 0-.954 0v4.027a.478.478 0 1 0 .954 0v-4.026Z"/></g><g filter="url(#M)"><path fill="#665A5C" d="M81.225 64.94a.478.478 0 1 0-.954 0v4.027a.478.478 0 1 0 .954 0v-4.026Z"/></g><defs><linearGradient id="a" x1="38.535" x2="52.889" y1="53.716" y2="35.138" gradientUnits="userSpaceOnUse"><stop stop-color="#6363A2"/><stop offset="1" stop-color="#5A4A8A"/></linearGradient><linearGradient id="b" x1="50.187" x2="47.909" y1="48.544" y2="33.874" gradientUnits="userSpaceOnUse"><stop offset=".549" stop-color="#4D4175" stop-opacity="0"/><stop offset="1" stop-color="#4D4175"/></linearGradient><linearGradient id="c" x1="45.207" x2="42.715" y1="48.947" y2="46.877" gradientUnits="userSpaceOnUse"><stop stop-color="#4E4B84"/><stop offset="1" stop-color="#4E4B84" stop-opacity="0"/></linearGradient><linearGradient id="f" x1="83.714" x2="104.885" y1="44.345" y2="45.358" gradientUnits="userSpaceOnUse"><stop stop-color="#6363A2"/><stop offset="1" stop-color="#5A4A8A"/></linearGradient><linearGradient id="h" x1="103.769" x2="85.359" y1="54.181" y2="37.673" gradientUnits="userSpaceOnUse"><stop stop-color="#9A8BBD" stop-opacity="0"/><stop offset=".378" stop-color="#A997CF"/><stop offset="1" stop-color="#9A8BBD" stop-opacity="0"/></linearGradient><linearGradient id="j" x1="58.256" x2="39.846" y1="54.181" y2="37.673" gradientUnits="userSpaceOnUse"><stop stop-color="#9A8BBD" stop-opacity="0"/><stop offset=".378" stop-color="#A997CF"/><stop offset="1" stop-color="#9A8BBD" stop-opacity="0"/></linearGradient><linearGradient id="o" x1="110.144" x2="97.814" y1="90.958" y2="87.072" gradientUnits="userSpaceOnUse"><stop stop-color="#E1D3F1"/><stop offset="1" stop-color="#E1D3F1" stop-opacity="0"/></linearGradient><linearGradient id="q" x1="54.449" x2="54.449" y1="58.245" y2="75.674" gradientUnits="userSpaceOnUse"><stop stop-color="#706AA5"/><stop offset="1" stop-color="#604685"/></linearGradient><linearGradient id="s" x1="84.151" x2="84.151" y1="57.926" y2="82.343" gradientUnits="userSpaceOnUse"><stop stop-color="#706AA5"/><stop offset="1" stop-color="#604685"/></linearGradient><linearGradient id="v" x1="68.946" x2="70.078" y1="71.788" y2="81.151" gradientUnits="userSpaceOnUse"><stop stop-color="#5F5254"/><stop offset="1" stop-color="#2E2127"/></linearGradient><linearGradient id="w" x1="68.675" x2="68.675" y1="75.879" y2="72.626" gradientUnits="userSpaceOnUse"><stop offset=".147" stop-color="#34222C" stop-opacity="0"/><stop offset=".873" stop-color="#34222C"/></linearGradient><linearGradient id="x" x1="67.046" x2="67.046" y1="81.338" y2="76.417" gradientUnits="userSpaceOnUse"><stop stop-color="#552D52"/><stop offset=".714" stop-color="#552D52" stop-opacity="0"/></linearGradient><linearGradient id="C" x1="60.28" x2="58" y1="67.651" y2="67.651" gradientUnits="userSpaceOnUse"><stop stop-color="#594C4F"/><stop offset="1" stop-color="#413039"/></linearGradient><linearGradient id="D" x1="61.115" x2="61.115" y1="72.21" y2="69.34" gradientUnits="userSpaceOnUse"><stop stop-color="#492847"/><stop offset="1" stop-color="#552D52" stop-opacity="0"/></linearGradient><linearGradient id="E" x1="82.319" x2="79.657" y1="66.776" y2="66.776" gradientUnits="userSpaceOnUse"><stop stop-color="#594C4F"/><stop offset="1" stop-color="#413039"/></linearGradient><linearGradient id="F" x1="77.485" x2="77.485" y1="71.302" y2="68.832" gradientUnits="userSpaceOnUse"><stop stop-color="#492847"/><stop offset="1" stop-color="#552D52" stop-opacity="0"/></linearGradient><linearGradient id="K" x1="59.375" x2="79.685" y1="85.261" y2="85.261" gradientUnits="userSpaceOnUse"><stop stop-color="#5F5356"/><stop offset=".289" stop-color="#5F5356" stop-opacity="0"/><stop offset=".445" stop-color="#5F5356" stop-opacity="0"/><stop offset=".534" stop-color="#5F5356"/><stop offset="1" stop-color="#5F5356" stop-opacity="0"/></linearGradient><radialGradient id="d" cx="0" cy="0" r="1" gradientTransform="rotate(146.983 23.6 28.13) scale(27.8957 12.7541)" gradientUnits="userSpaceOnUse"><stop offset=".869" stop-color="#4E4B84" stop-opacity="0"/><stop offset="1" stop-color="#4E4B84"/></radialGradient><radialGradient id="e" cx="0" cy="0" r="1" gradientTransform="matrix(-9.31165 4.55991 -6.3937 -13.05635 59.372 38.94)" gradientUnits="userSpaceOnUse"><stop stop-color="#5A4482"/><stop offset="1" stop-color="#5A4482" stop-opacity="0"/></radialGradient><radialGradient id="l" cx="0" cy="0" r="1" gradientTransform="rotate(90 9.703 60.246) scale(49.7022)" gradientUnits="userSpaceOnUse"><stop stop-color="#EBE3F5"/><stop offset="1" stop-color="#DAC8ED"/></radialGradient><radialGradient id="m" cx="0" cy="0" r="1" gradientTransform="matrix(0 -29.7918 84.6277 0 69.949 100.753)" gradientUnits="userSpaceOnUse"><stop stop-color="#C7B0DE"/><stop offset="1" stop-color="#C7B0DE" stop-opacity="0"/></radialGradient><radialGradient id="n" cx="0" cy="0" r="1" gradientTransform="matrix(-13.00444 11.48433 -29.4057 -33.29794 97.476 54.14)" gradientUnits="userSpaceOnUse"><stop stop-color="#F4F2F8"/><stop offset="1" stop-color="#F4F2F8" stop-opacity="0"/></radialGradient><radialGradient id="p" cx="0" cy="0" r="1" gradientTransform="rotate(23.798 -124.254 146.375) scale(65.7112 50.0338)" gradientUnits="userSpaceOnUse"><stop offset=".897" stop-color="#BAB0C7" stop-opacity="0"/><stop offset=".992" stop-color="#BAB0C7"/></radialGradient><radialGradient id="r" cx="0" cy="0" r="1" gradientTransform="matrix(-10.3022 0 0 -14.5833 66.57 68.683)" gradientUnits="userSpaceOnUse"><stop offset=".014" stop-color="#5F4E87"/><stop offset="1" stop-color="#5F4E87" stop-opacity="0"/></radialGradient><radialGradient id="t" cx="0" cy="0" r="1" gradientTransform="matrix(9.00507 -5.89262 8.34139 12.74727 73.326 74.574)" gradientUnits="userSpaceOnUse"><stop offset=".014" stop-color="#5F4E87"/><stop offset="1" stop-color="#5F4E87" stop-opacity="0"/></radialGradient><radialGradient id="y" cx="0" cy="0" r="1" gradientTransform="matrix(11.47003 -3.894 1.7485 5.15032 63.53 78.917)" gradientUnits="userSpaceOnUse"><stop offset=".828" stop-color="#5C5458" stop-opacity="0"/><stop offset=".935" stop-color="#5C5458"/></radialGradient><radialGradient id="z" cx="0" cy="0" r="1" gradientTransform="rotate(148.131 26.246 48.048) scale(3.99681 1.43781)" gradientUnits="userSpaceOnUse"><stop stop-color="#6A5C5E"/><stop offset=".808" stop-color="#6A5C5E" stop-opacity="0"/></radialGradient><radialGradient id="H" cx="0" cy="0" r="1" gradientTransform="matrix(0 4.64441 -10.1154 0 64.568 84.918)" gradientUnits="userSpaceOnUse"><stop offset=".006" stop-color="#423539"/><stop offset="1" stop-color="#472849"/></radialGradient><radialGradient id="I" cx="0" cy="0" r="1" gradientTransform="matrix(0 4.40249 -7.64008 0 74 86.47)" gradientUnits="userSpaceOnUse"><stop offset=".006" stop-color="#423539"/><stop offset="1" stop-color="#472849"/></radialGradient><filter id="g" width="23.066" height="23.068" x="81.045" y="37.009" color-interpolation-filters="sRGB" filterUnits="userSpaceOnUse"><feFlood flood-opacity="0" result="BackgroundImageFix"/><feBlend in="SourceGraphic" in2="BackgroundImageFix" result="shape"/><feGaussianBlur result="effect1_foregroundBlur_287_2342" stdDeviation=".3"/></filter><filter id="i" width="22.954" height="22.954" x="35.589" y="37.067" color-interpolation-filters="sRGB" filterUnits="userSpaceOnUse"><feFlood flood-opacity="0" result="BackgroundImageFix"/><feBlend in="SourceGraphic" in2="BackgroundImageFix" result="shape"/><feGaussianBlur result="effect1_foregroundBlur_287_2342" stdDeviation=".25"/></filter><filter id="k" width="80.662" height="70.029" x="30.118" y="35.694" color-interpolation-filters="sRGB" filterUnits="userSpaceOnUse"><feFlood flood-opacity="0" result="BackgroundImageFix"/><feColorMatrix in="SourceAlpha" result="hardAlpha" values="0 0 0 0 0 0 0 0 0 0 0 0 0 0 0 0 0 0 127 0"/><feOffset dx="1" dy=".5"/><feGaussianBlur stdDeviation="1"/><feComposite in2="hardAlpha" operator="out"/><feColorMatrix values="0 0 0 0 0.596078 0 0 0 0 0.584314 0 0 0 0 0.643137 0 0 0 0.6 0"/><feBlend in2="BackgroundImageFix" result="effect1_dropShadow_287_2342"/><feColorMatrix in="SourceAlpha" result="hardAlpha" values="0 0 0 0 0 0 0 0 0 0 0 0 0 0 0 0 0 0 127 0"/><feOffset dy="-1"/><feGaussianBlur stdDeviation="1"/><feComposite in2="hardAlpha" operator="out"/><feColorMatrix values="0 0 0 0 0.686275 0 0 0 0 0.490196 0 0 0 0 0.862745 0 0 0 1 0"/><feBlend in2="effect1_dropShadow_287_2342" result="effect2_dropShadow_287_2342"/><feBlend in="SourceGraphic" in2="effect2_dropShadow_287_2342" result="shape"/></filter><filter id="u" width="9.787" height="7.637" x="63.647" y="74.363" color-interpolation-filters="sRGB" filterUnits="userSpaceOnUse"><feFlood flood-opacity="0" result="BackgroundImageFix"/><feBlend in="SourceGraphic" in2="BackgroundImageFix" result="shape"/><feGaussianBlur result="effect1_foregroundBlur_287_2342" stdDeviation=".25"/></filter><filter id="A" width="4.97" height="8.58" x="54.905" y="63.857" color-interpolation-filters="sRGB" filterUnits="userSpaceOnUse"><feFlood flood-opacity="0" result="BackgroundImageFix"/><feBlend in="SourceGraphic" in2="BackgroundImageFix" result="shape"/><feGaussianBlur result="effect1_foregroundBlur_287_2342" stdDeviation=".25"/></filter><filter id="B" width="4.97" height="8.58" x="76.606" y="63.857" color-interpolation-filters="sRGB" filterUnits="userSpaceOnUse"><feFlood flood-opacity="0" result="BackgroundImageFix"/><feBlend in="SourceGraphic" in2="BackgroundImageFix" result="shape"/><feGaussianBlur result="effect1_foregroundBlur_287_2342" stdDeviation=".25"/></filter><filter id="G" width="21.415" height="8.476" x="58.176" y="83.192" color-interpolation-filters="sRGB" filterUnits="userSpaceOnUse"><feFlood flood-opacity="0" result="BackgroundImageFix"/><feBlend in="SourceGraphic" in2="BackgroundImageFix" result="shape"/><feGaussianBlur result="effect1_foregroundBlur_287_2342" stdDeviation=".25"/></filter><filter id="J" width="19.581" height="5.438" x="59.508" y="83.535" color-interpolation-filters="sRGB" filterUnits="userSpaceOnUse"><feFlood flood-opacity="0" result="BackgroundImageFix"/><feBlend in="SourceGraphic" in2="BackgroundImageFix" result="shape"/><feGaussianBlur result="effect1_foregroundBlur_287_2342" stdDeviation=".125"/></filter><filter id="L" width="1.954" height="5.983" x="58.237" y="63.962" color-interpolation-filters="sRGB" filterUnits="userSpaceOnUse"><feFlood flood-opacity="0" result="BackgroundImageFix"/><feBlend in="SourceGraphic" in2="BackgroundImageFix" result="shape"/><feGaussianBlur result="effect1_foregroundBlur_287_2342" stdDeviation=".25"/></filter><filter id="M" width="1.954" height="5.983" x="79.771" y="63.962" color-interpolation-filters="sRGB" filterUnits="userSpaceOnUse"><feFlood flood-opacity="0" result="BackgroundImageFix"/><feBlend in="SourceGraphic" in2="BackgroundImageFix" result="shape"/><feGaussianBlur result="effect1_foregroundBlur_287_2342" stdDeviation=".25"/></filter></defs></svg>