<svg width="23" height="15" fill="none" xmlns="http://www.w3.org/2000/svg"><path d="M16.471.26a1.207 1.207 0 0 0-1.703.206L6.315 11.334 2.173 6.288A1.208 1.208 0 1 0 .29 7.797l5.036 6.255a1.207 1.207 0 0 0 .942.447 1.208 1.208 0 0 0 1.002-.46l9.456-12.075A1.208 1.208 0 0 0 16.47.26zm6.038 0a1.207 1.207 0 0 0-1.703.206l-8.453 10.868-.736-.905-1.522 1.956 1.328 1.655a1.208 1.208 0 0 0 1.884-.012L22.763 1.95a1.208 1.208 0 0 0-.254-1.69z" fill="#fff"/><path d="m6.919 8.533 1.557-1.956-.241-.29a1.208 1.208 0 0 0-1.727-.242 1.208 1.208 0 0 0-.181 1.703l.592.785z" fill="#fff"/></svg>