<svg width="25" height="25" viewBox="0 0 25 25" fill="none" xmlns="http://www.w3.org/2000/svg">
<path d="M12.5 0.574951C10.1266 0.574951 7.80655 1.27874 5.83316 2.59732C3.85977 3.91589 2.3217 5.79004 1.41345 7.98275C0.505199 10.1755 0.267559 12.5883 0.730582 14.916C1.1936 17.2438 2.33649 19.382 4.01472 21.0602C5.69295 22.7385 7.83115 23.8814 10.1589 24.3444C12.4867 24.8074 14.8995 24.5698 17.0922 23.6615C19.2849 22.7533 21.1591 21.2152 22.4776 19.2418C23.7962 17.2684 24.5 14.9483 24.5 12.575C24.5 9.39235 23.2357 6.34011 20.9853 4.08967C18.7349 1.83923 15.6826 0.574951 12.5 0.574951ZM11.45 5.59995C11.45 5.32147 11.5606 5.0544 11.7575 4.85749C11.9545 4.66058 12.2215 4.54995 12.5 4.54995C12.7785 4.54995 13.0456 4.66058 13.2425 4.85749C13.4394 5.0544 13.55 5.32147 13.55 5.59995V14.6C13.55 14.8784 13.4394 15.1455 13.2425 15.3424C13.0456 15.5393 12.7785 15.65 12.5 15.65C12.2215 15.65 11.9545 15.5393 11.7575 15.3424C11.5606 15.1455 11.45 14.8784 11.45 14.6V5.59995ZM12.5 20.45C12.233 20.45 11.972 20.3708 11.75 20.2224C11.528 20.0741 11.3549 19.8633 11.2528 19.6166C11.1506 19.3699 11.1239 19.0985 11.1759 18.8366C11.228 18.5747 11.3566 18.3342 11.5454 18.1454C11.7342 17.9566 11.9748 17.828 12.2366 17.7759C12.4985 17.7238 12.7699 17.7505 13.0166 17.8527C13.2633 17.9549 13.4741 18.1279 13.6225 18.3499C13.7708 18.5719 13.85 18.8329 13.85 19.1C13.85 19.458 13.7078 19.8014 13.4546 20.0545C13.2014 20.3077 12.858 20.45 12.5 20.45Z" fill="#F50106"/>
</svg>
