<svg width="30" height="30" fill="none" xmlns="http://www.w3.org/2000/svg"><path d="M15 22.083c.401 0 .738-.136 1.01-.408.272-.272.407-.608.406-1.008v-5.703c0-.4-.136-.731-.408-.991a1.404 1.404 0 0 0-1.008-.39c-.402 0-.738.136-1.01.408A1.365 1.365 0 0 0 13.583 15v5.702c0 .401.136.732.408.992.272.26.608.39 1.009.39zm0-11.333c.401 0 .738-.136 1.01-.408.272-.272.407-.608.406-1.009 0-.401-.136-.738-.408-1.01A1.365 1.365 0 0 0 15 7.917c-.402 0-.738.136-1.01.408a1.365 1.365 0 0 0-.407 1.008c0 .402.136.738.408 1.01.272.272.608.408 1.009.407zm0 18.417c-1.96 0-3.802-.373-5.525-1.117a14.329 14.329 0 0 1-4.498-3.027 14.297 14.297 0 0 1-3.028-4.498C1.206 18.8.834 16.96.833 15c0-1.96.372-3.802 1.116-5.525a14.328 14.328 0 0 1 3.028-4.498A14.296 14.296 0 0 1 9.475 1.95C11.198 1.206 13.04.834 15 .833c1.96 0 3.801.372 5.525 1.117a14.328 14.328 0 0 1 4.498 3.027 14.316 14.316 0 0 1 3.028 4.498c.745 1.723 1.116 3.565 1.115 5.525 0 1.96-.372 3.801-1.116 5.525a14.329 14.329 0 0 1-3.027 4.498 14.318 14.318 0 0 1-4.498 3.029c-1.724.744-3.566 1.116-5.525 1.115z" fill="#6F5FFE"/></svg>