<svg width="13" height="13" viewBox="0 0 13 13" fill="none" xmlns="http://www.w3.org/2000/svg">
<path d="M7.04492 10.3672C7.11763 10.4396 7.17532 10.5257 7.21468 10.6205C7.25404 10.7152 7.2743 10.8168 7.2743 10.9195C7.2743 11.0221 7.25404 11.1237 7.21468 11.2185C7.17532 11.3133 7.11763 11.3993 7.04492 11.4718L6.65888 11.8577C5.92736 12.5891 4.93521 13 3.90068 13C2.86616 13 1.874 12.5891 1.14248 11.8577C0.410963 11.1264 0 10.1344 0 9.1001C0 8.06578 0.410963 7.07383 1.14248 6.34245L2.71005 4.77585C3.41292 4.07139 4.35859 3.66228 5.35336 3.63232C6.34814 3.60236 7.31673 3.95382 8.06072 4.6147C8.13754 4.68297 8.20015 4.76569 8.24499 4.85814C8.28982 4.9506 8.316 5.05098 8.32204 5.15355C8.32807 5.25613 8.31384 5.35888 8.28016 5.45596C8.24647 5.55303 8.19399 5.64252 8.12572 5.71932C8.05744 5.79612 7.9747 5.85872 7.88222 5.90354C7.78975 5.94837 7.68935 5.97455 7.58676 5.98058C7.48416 5.98662 7.38138 5.97239 7.28429 5.93871C7.1872 5.90503 7.09769 5.85256 7.02088 5.7843C6.57473 5.38815 5.99405 5.17739 5.39762 5.19515C4.80119 5.21291 4.23408 5.45783 3.81229 5.87981L2.24602 7.44447C1.80718 7.88323 1.56064 8.47831 1.56064 9.0988C1.56064 9.71929 1.80718 10.3144 2.24602 10.7531C2.68486 11.1919 3.28006 11.4384 3.90068 11.4384C4.5213 11.4384 5.1165 11.1919 5.55534 10.7531L5.94138 10.3672C6.01381 10.2947 6.09983 10.2372 6.1945 10.1979C6.28918 10.1587 6.39066 10.1385 6.49315 10.1385C6.59564 10.1385 6.69713 10.1587 6.7918 10.1979C6.88648 10.2372 6.97249 10.2947 7.04492 10.3672ZM11.8594 1.14035C11.1273 0.410105 10.1354 0 9.10122 0C8.06707 0 7.07514 0.410105 6.34303 1.14035L5.95698 1.52632C5.81047 1.6728 5.72816 1.87147 5.72816 2.07863C5.72816 2.28579 5.81047 2.48446 5.95698 2.63094C6.10349 2.77742 6.3022 2.85971 6.5094 2.85971C6.7166 2.85971 6.91531 2.77742 7.06182 2.63094L7.44786 2.24497C7.88671 1.80622 8.48191 1.55973 9.10252 1.55973C9.72314 1.55973 10.3183 1.80622 10.7572 2.24497C11.196 2.68373 11.4426 3.27881 11.4426 3.8993C11.4426 4.51979 11.196 5.11487 10.7572 5.55363L9.19026 7.12089C8.76811 7.5427 8.20068 7.78726 7.6041 7.80454C7.00752 7.82181 6.42689 7.61048 5.98103 7.2138C5.90422 7.14554 5.81471 7.09307 5.71761 7.05939C5.62052 7.02571 5.51774 7.01148 5.41515 7.01752C5.31255 7.02355 5.21215 7.04973 5.11968 7.09456C5.0272 7.13938 4.94447 7.20198 4.87619 7.27878C4.80791 7.35558 4.75543 7.44507 4.72175 7.54214C4.68806 7.63922 4.67383 7.74197 4.67986 7.84455C4.6859 7.94712 4.71208 8.0475 4.75692 8.13996C4.80176 8.23241 4.86437 8.31513 4.94118 8.3834C5.68466 9.04413 6.6526 9.39581 7.6469 9.36646C8.64121 9.33711 9.58671 8.92895 10.2899 8.2255L11.8575 6.6589C12.5887 5.9271 12.9996 4.9351 13 3.90068C13.0004 2.86625 12.5902 1.87396 11.8594 1.14165V1.14035Z" fill="white"/>
</svg>
