<svg width="13" height="13" fill="none" xmlns="http://www.w3.org/2000/svg"><path d="M7.045 10.367a.779.779 0 0 1 0 1.105l-.386.386a3.901 3.901 0 0 1-5.517-5.516L2.71 4.776a3.9 3.9 0 0 1 5.35-.161.783.783 0 1 1-1.04 1.17 2.34 2.34 0 0 0-3.208.095L2.246 7.444a2.34 2.34 0 1 0 3.31 3.31l.385-.387a.781.781 0 0 1 1.104 0zm4.814-9.227a3.906 3.906 0 0 0-5.516 0l-.386.386a.781.781 0 1 0 1.105 1.105l.386-.386a2.34 2.34 0 0 1 3.31 3.309L9.19 7.12a2.34 2.34 0 0 1-3.209.093.783.783 0 0 0-1.04 1.17 3.9 3.9 0 0 0 5.349-.159l1.568-1.566a3.904 3.904 0 0 0 .001-5.517V1.14z" fill="#fff"/></svg>