<svg width="19" height="19" fill="none" xmlns="http://www.w3.org/2000/svg"><path d="M9.167 18.333a8.864 8.864 0 0 1-3.552-.722 9.282 9.282 0 0 1-2.922-1.97 9.284 9.284 0 0 1-1.97-2.922A8.865 8.865 0 0 1 0 9.167C0 7.899.24 6.71.722 5.604a9.317 9.317 0 0 1 1.971-2.91A9.295 9.295 0 0 1 5.615.72 8.874 8.874 0 0 1 9.167 0c1.268 0 2.455.24 3.563.721a9.331 9.331 0 0 1 2.91 1.972 9.317 9.317 0 0 1 1.971 2.91 8.836 8.836 0 0 1 .722 3.564v1.329c0 .901-.309 1.669-.927 2.303-.62.634-1.38.951-2.281.951-.55 0-1.062-.122-1.535-.367a3.44 3.44 0 0 1-1.17-.962 4.56 4.56 0 0 1-3.253 1.329c-1.268 0-2.35-.447-3.243-1.341-.894-.894-1.34-1.974-1.34-3.242s.446-2.35 1.34-3.244c.894-.893 1.975-1.34 3.243-1.34 1.268 0 2.349.447 3.243 1.34.893.895 1.34 1.976 1.34 3.244v1.329c0 .443.137.79.412 1.042.275.252.596.379.963.379s.688-.127.962-.379c.276-.252.413-.6.413-1.042v-1.33c0-2-.722-3.723-2.166-5.168-1.444-1.443-3.166-2.165-5.167-2.165-2.002 0-3.724.722-5.168 2.165-1.444 1.445-2.166 3.167-2.166 5.169 0 2.001.722 3.723 2.165 5.167C5.444 15.778 7.165 16.5 9.168 16.5h3.666c.26 0 .478.088.653.264a.885.885 0 0 1 .264.653c0 .26-.088.477-.264.652a.885.885 0 0 1-.653.264H9.167zm0-6.416c.764 0 1.413-.268 1.948-.802a2.652 2.652 0 0 0 .802-1.948c0-.764-.268-1.414-.802-1.948a2.652 2.652 0 0 0-1.948-.802c-.764 0-1.414.267-1.948.802a2.652 2.652 0 0 0-.802 1.948c0 .764.267 1.413.802 1.948a2.652 2.652 0 0 0 1.948.802z" fill="#111"/></svg>