<svg width="22" height="20" fill="none" xmlns="http://www.w3.org/2000/svg"><path d="M21.496 4.055 19.609.952C19.13 0 17.609 0 17.217 0H4.783C4.39 0 3.348 0 2.87.952L.499 4.055C-.698 5.883.36 8.425 2.597 8.719c.162.02.328.031.49.031a3.6 3.6 0 0 0 2.636-1.133A3.6 3.6 0 0 0 8.359 8.75a3.6 3.6 0 0 0 2.636-1.133 3.6 3.6 0 0 0 2.637 1.133c1.059 0 1.993-.445 2.636-1.133a3.607 3.607 0 0 0 2.636 1.133c.166 0 .328-.012.49-.031 2.243-.29 3.307-2.832 2.106-4.664h-.004zm-1.937 5.902h-.004a5.042 5.042 0 0 1-2.086-.164V14a2 2 0 0 1-2 2H6.51a2 2 0 0 1-2-2.01l.02-4.2a4.983 4.983 0 0 1-2.099.167h-.004a4.826 4.826 0 0 1-.485-.09v6.323c0 1.905 1.884 3.81 3.797 3.81h10.522c1.913 0 3.826-1.905 3.826-3.81l-.03-6.323c-.162.04-.324.07-.498.09z" fill="#fff"/></svg>