<svg width="18" height="18" fill="none" xmlns="http://www.w3.org/2000/svg"><path d="M17.887 7.492c.046.255.075.507.09.754.015.248.023.499.023.754a8.759 8.759 0 0 1-.71 3.51 9.082 9.082 0 0 1-1.922 2.857 9.082 9.082 0 0 1-2.858 1.924A8.759 8.759 0 0 1 9 18a8.759 8.759 0 0 1-3.51-.71 9.082 9.082 0 0 1-2.858-1.922A9.082 9.082 0 0 1 .71 12.51 8.759 8.759 0 0 1 0 9c0-1.245.236-2.415.71-3.51a9.082 9.082 0 0 1 1.922-2.858A9.095 9.095 0 0 1 5.49.708 8.769 8.769 0 0 1 9 0a8.69 8.69 0 0 1 2.217.28 9.596 9.596 0 0 1 2.013.778c.225.12.364.303.417.55a.8.8 0 0 1-.17.687c-.15.195-.345.323-.585.383a.882.882 0 0 1-.675-.09 6.68 6.68 0 0 0-1.54-.586A6.981 6.981 0 0 0 9 1.8c-1.995 0-3.694.701-5.096 2.103C2.501 5.306 1.8 7.005 1.8 9c0 1.995.701 3.694 2.104 5.097C5.306 15.499 7.005 16.2 9 16.2s3.694-.701 5.097-2.103C15.499 12.694 16.2 10.995 16.2 9a7.21 7.21 0 0 0-.09-1.147.921.921 0 0 1 .102-.585c.097-.18.236-.323.416-.428a.743.743 0 0 1 .776-.012.927.927 0 0 1 .483.664zM7.11 12.51 4.522 9.922a.802.802 0 0 1-.235-.619.877.877 0 0 1 .258-.618.853.853 0 0 1 .63-.248c.255 0 .465.083.63.248L7.74 10.62l8.393-8.415a.805.805 0 0 1 .619-.237.88.88 0 0 1 .618.26.853.853 0 0 1 .247.63.853.853 0 0 1-.247.63l-9 9.022a.853.853 0 0 1-.63.248.853.853 0 0 1-.63-.248z" fill="#fff"/></svg>