<svg width="18" height="19" fill="none" xmlns="http://www.w3.org/2000/svg"><path fill-rule="evenodd" clip-rule="evenodd" d="M12 17a2 2 0 0 1-1.85 1.995L10 19H8a2 2 0 0 1-1.995-1.85L6 17h6zM9 0a7 7 0 0 1 6.996 6.76L16 7v3.764l1.822 3.644a1.098 1.098 0 0 1-.87 1.586l-.114.006H1.162a1.1 1.1 0 0 1-1.03-1.487l.046-.105L2 10.764V7a7 7 0 0 1 7-7zm0 2a5 5 0 0 0-4.995 4.783L4 7v3.764a2 2 0 0 1-.136.725l-.075.17L2.619 14h12.763l-1.17-2.342a2.004 2.004 0 0 1-.203-.709l-.01-.185V7a5 5 0 0 0-5-5z" fill="#fff"/></svg>