<svg width="30" height="30" fill="none" xmlns="http://www.w3.org/2000/svg"><rect width="30" height="30" rx="15" fill="#6F5FFE"/><path d="M14.847 18.263c-.306 0-.565-.112-.775-.335a.988.988 0 0 1-.278-.79c.038-.553.166-1.033.383-1.44.217-.409.561-.83 1.034-1.264.523-.473.921-.885 1.196-1.234.275-.349.412-.747.411-1.193 0-.54-.175-.987-.526-1.342-.35-.356-.839-.533-1.464-.533-.409 0-.756.088-1.044.266a2.28 2.28 0 0 0-.698.661c-.178.263-.399.441-.66.533a1.002 1.002 0 0 1-.756-.02 1.088 1.088 0 0 1-.603-.65.967.967 0 0 1 .067-.85 4.666 4.666 0 0 1 1.493-1.48c.625-.395 1.359-.592 2.2-.592 1.34 0 2.37.385 3.092 1.154.721.77 1.081 1.694 1.081 2.774 0 .657-.137 1.22-.411 1.688-.274.467-.705.996-1.292 1.588-.434.421-.74.763-.919 1.026-.179.263-.3.566-.364.908a1.39 1.39 0 0 1-.402.81c-.216.21-.472.315-.765.315zM14.827 23c-.42 0-.78-.155-1.081-.464-.3-.31-.45-.681-.45-1.115 0-.434.15-.806.45-1.116.3-.309.661-.463 1.082-.463.42 0 .781.155 1.082.464.3.31.45.681.449 1.115 0 .434-.15.806-.45 1.116-.3.31-.66.463-1.081.463z" fill="#fff"/></svg>