<svg width="20" height="20" fill="none" xmlns="http://www.w3.org/2000/svg"><path d="M19.875 8.325c.05.283.083.562.1.837.017.275.025.555.025.838a9.733 9.733 0 0 1-.788 3.9 10.092 10.092 0 0 1-2.137 3.175c-.9.9-1.958 1.612-3.175 2.137A9.733 9.733 0 0 1 10 20a9.733 9.733 0 0 1-3.9-.788 10.092 10.092 0 0 1-3.175-2.137c-.9-.9-1.612-1.958-2.137-3.175A9.732 9.732 0 0 1 0 10c0-1.383.263-2.683.788-3.9a10.092 10.092 0 0 1 2.137-3.175c.9-.9 1.958-1.613 3.175-2.138A9.743 9.743 0 0 1 10 0c.85 0 1.671.104 2.463.312.791.209 1.537.496 2.237.863a.87.87 0 0 1 .463.612.888.888 0 0 1-.188.763 1.149 1.149 0 0 1-.65.425.98.98 0 0 1-.75-.1 7.422 7.422 0 0 0-1.712-.65A7.758 7.758 0 0 0 10 2c-2.217 0-4.104.779-5.662 2.337C2.779 5.896 2 7.783 2 10s.78 4.104 2.338 5.663C5.896 17.221 7.783 18 10 18s4.104-.779 5.663-2.337C17.221 14.104 18 12.217 18 10a7.996 7.996 0 0 0-.1-1.275c-.033-.233.004-.45.113-.65.108-.2.262-.358.462-.475a.825.825 0 0 1 .863-.013c.291.159.47.405.537.738zM7.9 13.9l-2.875-2.875a.891.891 0 0 1-.262-.688.975.975 0 0 1 .287-.687.948.948 0 0 1 .7-.275c.283 0 .517.092.7.275L8.6 11.8l9.325-9.35a.894.894 0 0 1 .688-.263.978.978 0 0 1 .687.288.948.948 0 0 1 .275.7.948.948 0 0 1-.275.7L9.3 13.9a.948.948 0 0 1-.7.275.948.948 0 0 1-.7-.275z" fill="#fff"/></svg>