<svg width="23" height="23" viewBox="0 0 23 23" fill="none" xmlns="http://www.w3.org/2000/svg">
<path fill-rule="evenodd" clip-rule="evenodd" d="M14.5803 15.9511C12.8391 17.3423 10.6313 18.0141 8.41027 17.8283C6.18926 17.6426 4.12367 16.6134 2.63775 14.9523C1.15183 13.2911 0.358386 11.124 0.420368 8.89612C0.482351 6.66821 1.39506 4.5486 2.97104 2.97262C4.54701 1.39665 6.66662 0.483938 8.89453 0.421955C11.1224 0.359973 13.2895 1.15342 14.9507 2.63934C16.6118 4.12526 17.641 6.19084 17.8267 8.41186C18.0125 10.6329 17.3408 12.8407 15.9495 14.5819L22.6093 21.2405C22.7045 21.3292 22.7809 21.4361 22.8338 21.5549C22.8867 21.6738 22.9152 21.802 22.9175 21.9321C22.9198 22.0622 22.8959 22.1914 22.8472 22.312C22.7984 22.4327 22.7259 22.5422 22.6339 22.6342C22.5419 22.7262 22.4324 22.7987 22.3117 22.8475C22.1911 22.8962 22.0619 22.9201 21.9318 22.9178C21.8018 22.9155 21.6735 22.887 21.5546 22.8341C21.4358 22.7811 21.3289 22.7048 21.2402 22.6096L14.5803 15.9511ZM4.34388 13.9335C3.39585 12.9854 2.75016 11.7775 2.48841 10.4625C2.22667 9.14751 2.36062 7.78444 2.87333 6.54556C3.38604 5.30667 4.2545 4.24758 5.36896 3.50214C6.48342 2.75669 7.79384 2.35834 9.13463 2.35744C10.4754 2.35653 11.7864 2.75312 12.9018 3.49707C14.0173 4.24101 14.8872 5.29893 15.4016 6.53713C15.9159 7.77532 16.0517 9.13821 15.7917 10.4535C15.5318 11.7689 14.8877 12.9776 13.941 13.927L13.9345 13.9335L13.928 13.9387C12.6559 15.2079 10.9319 15.9203 9.13489 15.9193C7.33785 15.9183 5.61468 15.2041 4.34388 13.9335Z" fill="#111111"/>
</svg>
