<svg width="23" height="23" viewBox="0 0 23 23" fill="none" xmlns="http://www.w3.org/2000/svg">
<path fill-rule="evenodd" clip-rule="evenodd" d="M14.1633 15.5325C12.4221 16.9238 10.2143 17.5955 7.99328 17.4097C5.77226 17.224 3.70668 16.1948 2.22076 14.5337C0.734842 12.8725 -0.0586063 10.7054 0.0033761 8.47754C0.0653585 6.24963 0.978067 4.13002 2.55404 2.55404C4.13002 0.978067 6.24963 0.0653585 8.47754 0.0033761C10.7054 -0.0586063 12.8725 0.734842 14.5337 2.22076C16.1948 3.70668 17.224 5.77226 17.4097 7.99328C17.5955 10.2143 16.9238 12.4221 15.5325 14.1633L22.1923 20.8219C22.2875 20.9106 22.3639 21.0175 22.4168 21.1364C22.4698 21.2552 22.4982 21.3835 22.5005 21.5135C22.5028 21.6436 22.4789 21.7728 22.4302 21.8934C22.3814 22.0141 22.3089 22.1237 22.2169 22.2156C22.1249 22.3076 22.0154 22.3802 21.8947 22.4289C21.7741 22.4776 21.6449 22.5015 21.5148 22.4992C21.3848 22.4969 21.2565 22.4685 21.1376 22.4155C21.0188 22.3626 20.9119 22.2862 20.8232 22.191L14.1633 15.5325ZM3.92688 13.5149C2.97885 12.5668 2.33317 11.3589 2.07142 10.0439C1.80968 8.72893 1.94362 7.36586 2.45634 6.12698C2.96905 4.88809 3.83751 3.829 4.95197 3.08356C6.06642 2.33811 7.37685 1.93976 8.71764 1.93886C10.0584 1.93796 11.3694 2.33454 12.4848 3.07849C13.6003 3.82244 14.4702 4.88036 14.9846 6.11855C15.4989 7.35674 15.6347 8.71963 15.3748 10.035C15.1148 11.3503 14.4707 12.5591 13.524 13.5085L13.5175 13.5149L13.511 13.5201C12.2389 14.7893 10.5149 15.5017 8.7179 15.5007C6.92086 15.4997 5.19769 14.7855 3.92688 13.5149Z" fill="#CCCCCC"/>
</svg>
