<svg width="19" height="17" viewBox="0 0 19 17" fill="none" xmlns="http://www.w3.org/2000/svg">
<path d="M18.4258 7.70815L1.42576 0.708149C1.25458 0.637668 1.06406 0.611123 0.876322 0.631596C0.688587 0.652069 0.511339 0.718721 0.365164 0.823811C0.218988 0.928901 0.109881 1.06812 0.0505117 1.2253C-0.00885731 1.38247 -0.0160522 1.55116 0.0297628 1.71177L1.24176 5.95465L8.99976 8.50002L1.24176 11.0454L0.0297628 15.2883C-0.0169142 15.449 -0.0103198 15.618 0.0487745 15.7756C0.107869 15.9332 0.21702 16.0728 0.363459 16.1781C0.509899 16.2833 0.687572 16.3499 0.875696 16.3701C1.06382 16.3903 1.25461 16.3631 1.42576 16.2919L18.4258 9.2919C18.5976 9.22124 18.7428 9.10925 18.8446 8.96902C18.9463 8.8288 19.0004 8.66613 19.0004 8.50002C19.0004 8.33392 18.9463 8.17125 18.8446 8.03103C18.7428 7.8908 18.5976 7.77881 18.4258 7.70815Z" fill="white"/>
</svg>
