<svg width="17" height="16" viewBox="0 0 17 16" fill="none" xmlns="http://www.w3.org/2000/svg">
<path d="M16.4859 7.19492L1.27647 0.0845837C1.12331 0.0129918 0.952859 -0.0139719 0.784897 0.00682402C0.616934 0.0276199 0.458356 0.0953221 0.327576 0.202069C0.196796 0.308815 0.0991811 0.450227 0.0460652 0.609882C-0.0070507 0.769537 -0.0134877 0.940885 0.0275017 1.10403L1.11185 5.41378L8.05273 7.99928L1.11185 10.5848L0.0275017 14.8945C-0.014259 15.0578 -0.00835916 15.2295 0.044511 15.3896C0.0973812 15.5496 0.195036 15.6914 0.326051 15.7983C0.457067 15.9053 0.616027 15.9729 0.784336 15.9934C0.952645 16.0139 1.12334 15.9863 1.27647 15.914L16.4859 8.80364C16.6396 8.73186 16.7696 8.61811 16.8606 8.47567C16.9517 8.33324 17 8.168 17 7.99928C17 7.83056 16.9517 7.66533 16.8606 7.52289C16.7696 7.38045 16.6396 7.2667 16.4859 7.19492Z" fill="white"/>
</svg>
