<svg xmlns="http://www.w3.org/2000/svg" width="37" height="37" fill="none"><rect width="37" height="37" fill="#fff" rx="18.5"/><path fill="#000" d="M26.6 19c0-.253-.012-.495-.033-.748l2.008-1.551c.432-.33.551-.946.281-1.43l-2.02-3.553a1.07 1.07 0 0 0-.587-.494 1.048 1.048 0 0 0-.762.032l-2.322 1.001c-.4-.286-.82-.539-1.263-.748l-.314-2.541A1.09 1.09 0 0 0 20.52 8h-4.028c-.55 0-1.015.418-1.08.968l-.313 2.541a8.158 8.158 0 0 0-1.263.748l-2.322-1.001a1.056 1.056 0 0 0-1.35.462l-2.019 3.564a1.123 1.123 0 0 0 .28 1.43l2.01 1.551a8.22 8.22 0 0 0 0 1.485l-2.01 1.551a1.12 1.12 0 0 0-.28 1.43l2.02 3.553c.27.484.852.682 1.35.462l2.32-1.001c.4.286.822.539 1.264.748l.313 2.541c.065.55.53.968 1.07.968h4.028a1.09 1.09 0 0 0 1.069-.968l.313-2.541a8.158 8.158 0 0 0 1.263-.748l2.322 1.001c.497.22 1.08.022 1.35-.462l2.02-3.553a1.123 1.123 0 0 0-.282-1.43l-2.008-1.551c.032-.253.043-.495.043-.748Zm-8.057 3.85c-2.084 0-3.78-1.727-3.78-3.85s1.696-3.85 3.78-3.85c2.084 0 3.78 1.727 3.78 3.85s-1.696 3.85-3.78 3.85Z"/></svg>