<svg width="20" height="20" fill="none" xmlns="http://www.w3.org/2000/svg"><path d="M10 .833C4.94.833.833 4.94.833 10S4.94 19.167 10 19.167 19.166 15.06 19.166 10 15.06.833 10 .833zm4.253 6.234c-.137 1.448-.733 4.968-1.036 6.59-.128.688-.385.917-.623.945-.532.046-.935-.349-1.448-.688-.807-.531-1.265-.861-2.045-1.375-.907-.596-.32-.926.202-1.457.138-.138 2.484-2.274 2.53-2.466a.183.183 0 0 0-.046-.165c-.055-.046-.128-.028-.192-.018-.083.018-1.366.87-3.869 2.557-.366.248-.696.376-.99.367-.33-.01-.953-.184-1.42-.34-.578-.183-1.027-.284-.99-.604.018-.165.247-.33.678-.505 2.677-1.164 4.455-1.934 5.344-2.3 2.548-1.064 3.07-1.247 3.42-1.247.072 0 .247.018.357.11.091.073.119.174.128.247-.01.055.01.22 0 .349z" fill="#111"/></svg>